/* XPM */
static char * media_manager_clipboard_xpm[] = {
"32 32 8 1",
" 	c None",
".	c #2D344B",
"+	c #4A90E2",
"@	c #F0F0F0",
"#	c #FFFFFF",
"$	c #28A745",
"%	c #DCDCDC",
"&	c #C8C8C8",
"                                ",
"                                ",
"    ......................      ",
"   .                      .     ",
"  .   @@@@@@@@@@@@@@@@     .    ",
" .   @@@@@@@@@@@@@@@@@@     .   ",
" .   @&#############@@@     .   ",
" .   @###############@@     .   ",
" .   @#%%%%%%%%%%%%%#@@     .   ",
" .   @#%%%%%%%%%%%%%#@@     .   ",
" .   @#%%%%%%%%%%%%%#@@     .   ",
" .   @#%%%%%%%%%%%%%#@@     .   ",
" .   @###############@@     .   ",
" .   @@@@@@@@@@@@@@@@@@     .   ",
"  .   @@@@@@@@@@@@@@@@     .    ",
"   .                      .     ",
"    ......................      ",
"                                ",
"                      ....      ",
"                     .++++.     ",
"                    .+++$++.    ",
"                   .++$$$++.    ",
"                  .++$$$$$+.    ",
"                 .+++$$$++.     ",
"                .++++$++.       ",
"               .+++++.          ",
"              .+++.             ",
"             .++.               ",
"            .+.                 ",
"           .                    ",
"                                ",
"                                "};